<svg viewBox="0 0 269.7100067138672 35" xmlns="http://www.w3.org/2000/svg" data-logo="logo">
  <g transform="translate(0, 0.5)
    rotate(0 24 17)" id="logogram">
    <path fill="#007AFF" d="M15.4992 0H36.5808L21.0816 22.9729H0L15.4992 0Z"></path>
    <path fill="#312ECB" d="M16.4224 25.102L10.4192 34H32.5008L48 11.0271H31.7024L22.2064 25.102H16.4224Z"></path>
  </g>
  <g transform="translate(54, 4.31201171875)" id="logotype">
    <path
      d="M19.43 26.34L19.43 26.34Q16.05 26.34 13.37 24.80Q10.70 23.27 9.15 20.34Q7.61 17.42 7.61 13.29L7.61 13.29Q7.61 9.13 9.16 6.20Q10.72 3.27 13.40 1.73Q16.08 0.19 19.43 0.19L19.43 0.19Q21.60 0.19 23.47 0.80Q25.35 1.41 26.80 2.57Q28.25 3.73 29.17 5.42Q30.10 7.10 30.39 9.25L30.39 9.25L25.11 9.25Q24.94 8.19 24.45 7.38Q23.96 6.57 23.24 6.00Q22.51 5.42 21.57 5.12Q20.63 4.83 19.54 4.83L19.54 4.83Q17.55 4.83 16.06 5.82Q14.56 6.81 13.73 8.70Q12.90 10.58 12.90 13.29L12.90 13.29Q12.90 16.04 13.74 17.92Q14.58 19.80 16.07 20.75Q17.55 21.71 19.52 21.71L19.52 21.71Q20.61 21.71 21.54 21.41Q22.47 21.11 23.22 20.54Q23.96 19.97 24.45 19.15Q24.94 18.33 25.12 17.28L25.12 17.28L30.40 17.28Q30.20 19.06 29.35 20.69Q28.51 22.31 27.11 23.59Q25.70 24.87 23.77 25.61Q21.84 26.34 19.43 26.34ZM40.35 26.38L40.35 26.38Q37.48 26.38 35.38 25.14Q33.27 23.90 32.14 21.68Q31.00 19.47 31.00 16.53L31.00 16.53Q31.00 13.56 32.14 11.35Q33.27 9.13 35.38 7.89Q37.48 6.65 40.35 6.65L40.35 6.65Q43.24 6.65 45.33 7.89Q47.42 9.13 48.56 11.35Q49.70 13.56 49.70 16.53L49.70 16.53Q49.70 19.47 48.56 21.68Q47.42 23.90 45.33 25.14Q43.24 26.38 40.35 26.38ZM40.35 22.34L40.35 22.34Q41.72 22.34 42.64 21.58Q43.56 20.82 44.02 19.50Q44.48 18.17 44.48 16.52L44.48 16.52Q44.48 14.82 44.02 13.51Q43.56 12.19 42.64 11.44Q41.72 10.69 40.35 10.69L40.35 10.69Q38.98 10.69 38.07 11.44Q37.15 12.19 36.69 13.51Q36.23 14.82 36.23 16.52L36.23 16.52Q36.23 18.17 36.69 19.50Q37.15 20.82 38.07 21.58Q38.98 22.34 40.35 22.34ZM56.12 14.94L56.12 14.94L56.12 26L50.99 26L50.99 6.89L55.83 6.89L55.92 11.66L55.61 11.66Q56.36 9.27 57.89 7.96Q59.42 6.65 61.85 6.65L61.85 6.65Q63.83 6.65 65.31 7.52Q66.78 8.38 67.60 10.00Q68.41 11.61 68.41 13.85L68.41 13.85L68.41 26L63.28 26L63.28 14.74Q63.28 12.96 62.37 11.95Q61.45 10.94 59.83 10.94L59.83 10.94Q58.75 10.94 57.91 11.41Q57.06 11.88 56.59 12.77Q56.12 13.66 56.12 14.94ZM75.63 14.94L75.63 14.94L75.63 26L70.51 26L70.51 6.89L75.34 6.89L75.43 11.66L75.12 11.66Q75.87 9.27 77.40 7.96Q78.93 6.65 81.36 6.65L81.36 6.65Q83.34 6.65 84.82 7.52Q86.30 8.38 87.11 10.00Q87.92 11.61 87.92 13.85L87.92 13.85L87.92 26L82.80 26L82.80 14.74Q82.80 12.96 81.88 11.95Q80.97 10.94 79.34 10.94L79.34 10.94Q78.27 10.94 77.42 11.41Q76.57 11.88 76.10 12.77Q75.63 13.66 75.63 14.94ZM98.65 26.38L98.65 26.38Q95.73 26.38 93.61 25.18Q91.49 23.98 90.36 21.78Q89.22 19.57 89.22 16.55L89.22 16.55Q89.22 13.59 90.35 11.37Q91.48 9.15 93.54 7.90Q95.61 6.65 98.40 6.65L98.40 6.65Q100.28 6.65 101.90 7.25Q103.52 7.85 104.75 9.06Q105.98 10.26 106.68 12.07Q107.37 13.88 107.37 16.34L107.37 16.34L107.37 17.78L91.32 17.78L91.32 14.57L104.86 14.57L102.46 15.42Q102.46 13.93 102.01 12.83Q101.56 11.73 100.66 11.12Q99.76 10.52 98.45 10.52L98.45 10.52Q97.11 10.52 96.18 11.13Q95.25 11.75 94.77 12.80Q94.30 13.85 94.30 15.20L94.30 15.20L94.30 17.47Q94.30 19.13 94.85 20.26Q95.41 21.39 96.41 21.95Q97.41 22.51 98.74 22.51L98.74 22.51Q99.64 22.51 100.38 22.26Q101.11 22.00 101.64 21.50Q102.16 20.99 102.43 20.26L102.43 20.26L107.08 21.13Q106.62 22.70 105.47 23.89Q104.33 25.08 102.61 25.73Q100.89 26.38 98.65 26.38ZM117.14 26.38L117.14 26.38Q114.25 26.38 112.16 25.14Q110.07 23.90 108.93 21.68Q107.79 19.47 107.79 16.53L107.79 16.53Q107.79 13.56 108.93 11.35Q110.07 9.13 112.16 7.89Q114.25 6.65 117.14 6.65L117.14 6.65Q118.83 6.65 120.27 7.10Q121.71 7.54 122.82 8.36Q123.93 9.18 124.64 10.36Q125.36 11.54 125.64 13.01L125.64 13.01L120.87 13.90Q120.71 13.15 120.39 12.56Q120.06 11.97 119.60 11.55Q119.14 11.13 118.53 10.91Q117.93 10.69 117.19 10.69L117.19 10.69Q115.83 10.69 114.89 11.42Q113.96 12.16 113.49 13.47Q113.02 14.79 113.02 16.52L113.02 16.52Q113.02 18.21 113.49 19.52Q113.96 20.84 114.89 21.59Q115.83 22.34 117.19 22.34L117.19 22.34Q117.93 22.34 118.54 22.11Q119.16 21.88 119.64 21.45Q120.12 21.01 120.44 20.39Q120.77 19.78 120.90 19.01L120.90 19.01L125.67 19.88Q125.40 21.40 124.68 22.59Q123.96 23.78 122.85 24.63Q121.74 25.49 120.30 25.93Q118.85 26.38 117.14 26.38ZM125.07 6.89L136.40 6.89L136.40 10.81L125.07 10.81L125.07 6.89ZM127.70 20.86L127.70 2.35L132.83 2.35L132.83 20.41Q132.83 21.32 133.23 21.75Q133.63 22.19 134.57 22.19L134.57 22.19Q134.86 22.19 135.39 22.11Q135.92 22.04 136.20 21.97L136.20 21.97L136.93 25.81Q136.08 26.07 135.23 26.17Q134.38 26.27 133.61 26.27L133.61 26.27Q130.74 26.27 129.22 24.87Q127.70 23.47 127.70 20.86L127.70 20.86ZM146.53 26L146.53 26L139.94 26L139.94 21.51L146.28 21.51Q148.74 21.51 150.40 20.63Q152.07 19.76 152.91 17.93Q153.74 16.10 153.74 13.25L153.74 13.25Q153.74 10.41 152.90 8.59Q152.05 6.77 150.40 5.90Q148.75 5.03 146.31 5.03L146.31 5.03L139.82 5.03L139.82 0.54L146.62 0.54Q150.45 0.54 153.21 2.07Q155.97 3.60 157.45 6.44Q158.94 9.29 158.94 13.25L158.94 13.25Q158.94 17.23 157.45 20.09Q155.97 22.94 153.19 24.47Q150.41 26 146.53 26ZM137.58 0.54L142.79 0.54L142.79 26L137.58 26L137.58 0.54ZM169.09 26.38L169.09 26.38Q166.17 26.38 164.05 25.18Q161.93 23.98 160.79 21.78Q159.66 19.57 159.66 16.55L159.66 16.55Q159.66 13.59 160.78 11.37Q161.91 9.15 163.98 7.90Q166.05 6.65 168.83 6.65L168.83 6.65Q170.71 6.65 172.34 7.25Q173.96 7.85 175.19 9.06Q176.42 10.26 177.11 12.07Q177.80 13.88 177.80 16.34L177.80 16.34L177.80 17.78L161.76 17.78L161.76 14.57L175.29 14.57L172.90 15.42Q172.90 13.93 172.45 12.83Q171.99 11.73 171.10 11.12Q170.20 10.52 168.88 10.52L168.88 10.52Q167.55 10.52 166.62 11.13Q165.69 11.75 165.21 12.80Q164.73 13.85 164.73 15.20L164.73 15.20L164.73 17.47Q164.73 19.13 165.29 20.26Q165.84 21.39 166.84 21.95Q167.84 22.51 169.17 22.51L169.17 22.51Q170.08 22.51 170.82 22.26Q171.55 22.00 172.07 21.50Q172.59 20.99 172.87 20.26L172.87 20.26L177.51 21.13Q177.05 22.70 175.91 23.89Q174.76 25.08 173.05 25.73Q171.33 26.38 169.09 26.38ZM186.62 26.38L186.62 26.38Q184.31 26.38 182.54 25.72Q180.76 25.06 179.63 23.80Q178.50 22.55 178.18 20.77L178.18 20.77L182.95 19.95Q183.32 21.28 184.26 21.95Q185.20 22.62 186.77 22.62L186.77 22.62Q188.24 22.62 189.09 22.06Q189.94 21.51 189.94 20.65L189.94 20.65Q189.94 19.90 189.33 19.42Q188.72 18.94 187.48 18.69L187.48 18.69L184.18 18.00Q181.41 17.44 180.04 16.08Q178.67 14.72 178.67 12.58L178.67 12.58Q178.67 10.74 179.68 9.41Q180.69 8.09 182.49 7.37Q184.28 6.65 186.71 6.65L186.71 6.65Q188.96 6.65 190.62 7.28Q192.28 7.90 193.30 9.05Q194.33 10.19 194.67 11.75L194.67 11.75L190.12 12.55Q189.83 11.58 189.01 10.95Q188.18 10.33 186.77 10.33L186.77 10.33Q185.51 10.33 184.66 10.86Q183.80 11.39 183.80 12.28L183.80 12.28Q183.80 12.99 184.36 13.49Q184.91 13.99 186.26 14.26L186.26 14.26L189.70 14.94Q192.47 15.51 193.82 16.78Q195.17 18.05 195.17 20.10L195.17 20.10Q195.17 21.98 194.07 23.39Q192.98 24.80 191.06 25.59Q189.13 26.38 186.62 26.38ZM204.50 16.48L201.01 20.41L201.01 14.24L201.78 14.24L208.03 6.89L213.96 6.89L205.71 16.48L204.50 16.48ZM201.49 26L196.36 26L196.36 0.54L201.49 0.54L201.49 26ZM214.32 26L208.29 26L202.55 17.63L205.98 13.99L214.32 26Z"
      fill="#ffffff"></path>
  </g>

</svg>